<?xml version="1.0" encoding="utf-8"?>
<!-- Generator: Adobe Illustrator 24.2.1, SVG Export Plug-In . SVG Version: 6.00 Build 0)  -->
<svg version="1.1" id="圖層_1" xmlns="http://www.w3.org/2000/svg" xmlns:xlink="http://www.w3.org/1999/xlink" x="0px" y="0px"
	 viewBox="0 0 763.4 353.9" style="enable-background:new 0 0 763.4 353.9;" xml:space="preserve">
<style type="text/css">
	.st0{fill:#6B6B6B;}
</style>
<g>
	<g>
		<g>
			<path class="st0" d="M228.8,45.9c-4.3-0.4-8.6-0.5-12.9-0.5c-5,0-10,0.2-14.8,0.7c-0.6,0.1-1,0.4-1.3,0.9l-35.3,76.2l-13.9-75.9
				c-0.1-0.7-0.7-1.2-1.4-1.3c-4.7-0.4-9.4-0.6-14.2-0.6c-4.9,0-9.8,0.2-14.6,0.7c-0.6,0.1-1.1,0.4-1.3,1l-29.6,76.3L69.3,42.2
				c-0.2-0.6-0.7-1.1-1.4-1.2c-4.4-0.4-8.8-0.6-13.3-0.6c-4.2,0-8.3,0.2-12.4,0.5c-0.9,0.1-1.6,0.9-1.4,1.8L65,170.6
				c0.1,0.7,0.8,1.3,1.5,1.3h33.6c0.6,0,1.2-0.4,1.4-0.9l26.6-62.6l14,62.3c0.2,0.7,0.8,1.2,1.5,1.2h33.8c0.6,0,1.2-0.4,1.4-1
				l51.3-122.8C230.5,47.1,229.9,46,228.8,45.9z"/>
		</g>
	</g>
	<g>
		<g>
			<path class="st0" d="M294,43.2c-14.6,0-28.2,5.3-33.3,8c-1.1,0.6-1.9,1.5-2.4,2.6l-15.8,37.9c-0.4,1,0.9,1.9,1.7,1.1
				c9.5-9.3,27.1-20.6,41.1-21.2c15.8-0.7,19.4,6.1,19.4,19.7c0,0.1,0,0.1,0,0.2c-61.3,7-75.1,23.1-78.6,34.3
				c-7.5,23.5,15.3,49,58.8,49.4c33.6,0.3,50.8-4,55.1-5.3c0.7-0.2,1.1-0.8,1.1-1.5v-59.1v-4.7V94.5V94v-1.5V92
				C341,53.8,314.4,43.2,294,43.2z M304.6,145.1c0,0.5-0.3,0.9-0.8,1c-3.9,1.1-9.4,2-16.4,1.6c-19-1.1-26-10.8-24.3-18.1
				c1.6-6.9,16.8-15.2,41.5-17.5V145.1z"/>
		</g>
	</g>
	<g>
		<g>
			<path class="st0" d="M432.2,43.5c-32.5,0-55.2,5.7-60.4,7.2c-0.7,0.2-1.1,0.8-1.1,1.5v118.2c0,0.9,0.7,1.6,1.6,1.6h33.6
				c0.9,0,1.6-0.7,1.6-1.6V72.2c43.2-2.5,41.2,8.8,41.2,59l0,39.2c0,0.9,0.7,1.6,1.6,1.6h39.5c0.9,0,1.6-0.7,1.6-1.6v-66.6
				C491.3,62.3,478.1,43.5,432.2,43.5z"/>
		</g>
	</g>
	<g>
		<g>
			<path class="st0" d="M566.5,47.4c-8.2-1.3-16.6-2-25.2-2c-6,0-11.8,0.3-17.6,1c-0.8,0.1-1.4,0.8-1.4,1.6v122.4
				c0,0.9,0.7,1.6,1.6,1.6h42.4c0.9,0,1.6-0.7,1.6-1.6V49C567.8,48.2,567.3,47.5,566.5,47.4z"/>
		</g>
	</g>
	<g>
		<g>
			<path class="st0" d="M736.7,46.3c-5.7-0.6-11.4-1-17.3-1s-11.6,0.3-17.3,1c-0.8,0.1-1.4,0.8-1.4,1.6v51.9
				c-16.9-20.2-36.7-38-58.8-52.6c-0.7-0.4-1.4-0.7-2.2-0.8c-6-0.7-12.2-1.1-18.4-1.1c-5.6,0-11.2,0.3-16.6,0.9
				c-0.8,0.1-1.4,0.8-1.4,1.6v122.5c0,0.9,0.7,1.6,1.6,1.6h38.8c0.9,0,1.6-0.7,1.6-1.6V85.4c24.3,22,41.5,51.7,48,85.2
				c0.1,0.7,0.8,1.3,1.5,1.3h41.9c0.9,0,1.6-0.7,1.6-1.6V47.9C738.1,47.1,737.5,46.4,736.7,46.3z"/>
		</g>
	</g>
</g>
<path class="st0" d="M347.5,224.5h-45.1c-4.9,0-8.8,4-8.8,8.8v80.2c0,0.3,0.3,0.6,0.6,0.6h10c0.3,0,0.6-0.3,0.6-0.6v-80.5
	c0-1.3,1.1-2.4,2.4-2.4h30.3c0.2,0,0.3,0.1,0.3,0.3v75.2c0,1-0.8,1.8-1.8,1.8h-3.6c-1.6,0-2.9,1.3-2.9,2.9v2.6
	c0,0.3,0.3,0.6,0.6,0.6h10.1c4.9,0,8.8-4,8.8-8.8l0-79.3C348.9,225.2,348.3,224.5,347.5,224.5z M308.3,254.8v4.7
	c0,0.2,0.1,0.3,0.3,0.3h9.9v0h2.4h0.9h2.4v0h9c0.6,0,1.2-0.5,1.2-1.2v-4.7c0-0.2-0.1-0.3-0.3-0.3h-5.5c2.7-5.1,5.1-10.6,6.9-16.2
	c0.1-0.2-0.1-0.4-0.3-0.4H327c-0.6,0-1,0.4-1.1,1c-1.1,6.9-2.6,13.7-4.6,20.4c-2-6.6-3.5-13.4-4.6-20.4c-0.1-0.6-0.6-1-1.1-1h-8.1
	c-0.2,0-0.3,0.2-0.3,0.4c1.9,5.7,4.2,11.1,6.9,16.2h-4.7C308.8,253.6,308.3,254.1,308.3,254.8z M332.1,298.1l1.3-4.9
	c0.1-0.2-0.1-0.4-0.3-0.4h-9.9c-0.8,0-1.5-0.7-1.5-1.5v-13.6H333c0.6,0,1.2-0.5,1.2-1.2v-4.7c0-0.2-0.1-0.3-0.3-0.3h-7.8
	c-0.4-2.6-1-5.1-1.7-7.6c-0.1-0.5-0.6-0.8-1.1-0.8H315c-0.2,0-0.3,0.2-0.3,0.4c0.8,2.6,1.4,5.3,1.9,8.1h-7.2c-0.6,0-1.2,0.5-1.2,1.2
	v4.7c0,0.2,0.1,0.3,0.3,0.3h3.3v16.9c0,2.4,2,4.4,4.4,4.4h4.8h0.7h9.1C331.5,299,332,298.6,332.1,298.1z M427.2,281.3h-6.7
	c-0.8,0-1.4,0.6-1.5,1.4c-0.1,4.7-0.4,9.4-0.9,14c0,0.2,0.1,0.3,0.3,0.3h4.3c0.7,0,1.2-0.4,1.4-1.1c1.4-4.7,2.5-9.5,3.4-14.4
	C427.6,281.5,427.4,281.3,427.2,281.3z M416.1,224.9c-0.3-0.3-0.7-0.5-1.1-0.5h-2.4H408h-0.6h-1.2h-1.7c-2.6,0-5,1.7-5.7,4.3
	c-2.3,8.4-6.5,16-12,22.4c-0.2,0.2,0,0.5,0.2,0.5l7.7,0v5.1c0,0.2,0.1,0.3,0.3,0.3h8.7v12.4h-12.5c-0.8,0-1.5,0.7-1.5,1.5v4.6
	c0,0.2,0.1,0.3,0.3,0.3h13.7v31c-4.2,0.8-8.5,1.3-12.8,1.7c-0.8,0.1-1.4,0.7-1.4,1.5v4.9c0,0.2,0.1,0.3,0.3,0.3
	c12.5-0.3,24.6-2.2,36.1-5.5c0.6-0.2,1.1-0.8,1.1-1.4v-7.6c0-0.2-0.2-0.3-0.4-0.3c-3.8,1.5-7.7,2.8-11.7,3.9v-28.4h10.9
	c0.8,0,1.5-0.7,1.5-1.5v-4.6c0-0.2-0.1-0.3-0.3-0.3h-12v-12.4h7.4c0.8,0,1.5-0.7,1.5-1.5v-4.6c0-0.2-0.1-0.3-0.3-0.3h-23.6
	c3.5-5.9,6-12.4,7.3-19.4c0.1-0.3,0.3-0.5,0.6-0.5h3.3c0.1,0,0.2,0.1,0.3,0.2c2.5,5,4.4,10.3,5.4,16c0,0.1,0.1,0.2,0.3,0.2h10.7
	c0.6,0,1-0.6,0.8-1.2C425.9,238.1,421.6,230.9,416.1,224.9z M679.4,273.9h11.2c0.2,0,0.4-0.1,0.5-0.3c2.3-3.3,4.4-6.8,6.2-10.5h23.4
	c1.8,3.6,3.9,7.1,6.2,10.5c0.1,0.2,0.3,0.3,0.5,0.3h11.2c0.3,0,0.4-0.3,0.2-0.5c-3.7-4.1-7-8.6-9.9-13.4c5.4-10.2,8.6-21.7,9-34
	c0-0.5-0.4-0.9-0.9-0.9l-21.3,0c-2.4,0-4.4,2-4.4,4.4v0.9c0,0.3,0.3,0.6,0.6,0.6h15.5c0,1,0.1,2,0.1,3c0,6.5-0.8,12.8-2.3,18.8
	c-2.3-5-4-10.2-5.3-15.7c-0.1-0.3-0.3-0.5-0.6-0.5h-6.7c-0.4,0-0.6,0.3-0.6,0.7c1.2,6.9,3.1,13.5,5.8,19.8h-17.9
	c4-9.6,6.5-20.1,7-31.1c0-0.5-0.4-0.9-0.9-0.9h-19.7c-2.4,0-4.4,2-4.4,4.4v9.3c0,0.2,0.1,0.3,0.3,0.3h9c0.2,0,0.3-0.1,0.3-0.3v-7.3
	c0-0.3,0.3-0.6,0.6-0.6h6.9c-0.6,4.5-1.7,8.9-3,13.1h-11.9c-0.8,0-1.5,0.7-1.5,1.5v4c0,0.3,0.3,0.6,0.6,0.6h10.6
	c-1,2.4-2.1,4.7-3.3,7h-8.1c-0.8,0-1.5,0.7-1.5,1.5v4c0,0.3,0.3,0.6,0.6,0.6h5.5c-2.4,3.6-5,7.1-7.9,10.3
	C679,273.6,679.2,273.9,679.4,273.9z M290,289.5c0-0.3-0.3-0.5-0.6-0.5h-4.2c-0.3,0-0.6,0.3-0.6,0.6c0.2,6.1,0.8,12.1,1.8,17.9
	c0,0.3,0.3,0.5,0.6,0.5h4.4c0.7,0,1.3-0.7,1.1-1.4C291.3,301,290.5,295.3,290,289.5z M268.6,289h-4.2c-0.3,0-0.6,0.2-0.6,0.5
	c-0.7,8.1-2,16.1-4.1,23.7c-0.1,0.4,0.2,0.7,0.6,0.7h5.4c0.3,0,0.5-0.2,0.6-0.5c1.6-7.8,2.6-15.8,2.9-23.9
	C269.2,289.3,268.9,289,268.6,289z M288,284.8c0.8,0,1.5-0.7,1.5-1.5c-0.1-1.8-0.1-3.5-0.1-5.3c0-1.8,0-3.5,0.1-5.2
	c0-0.3-0.3-0.6-0.6-0.6h-3.3c-0.3,0-0.6,0.2-0.6,0.5c-0.2,2-0.3,4-0.4,6h-9.2c6-8,11.4-16.4,16.1-25.3c0.5-1-0.2-2.2-1.3-2.2h-11.6
	h-2.4c6.5-8.4,12.4-17.4,17.5-26.8c0.2-0.4-0.1-0.9-0.5-0.9h-9.8c-2.3,0-4.3,1.3-5.3,3.3c-4.8,9.9-10.5,19.3-16.8,28.2
	c-0.7,1,0,2.3,1.2,2.3h3.7h5.1h4.3c-4.5,8.8-9.6,17.2-15.3,25.1c-0.7,1,0,2.3,1.2,2.3h5.3h3.9h13.8h2.9H288z M677.1,262.3
	L677.1,262.3l0-36.5c0-0.7-0.5-1.2-1.2-1.2h-19c-3.3,0-5.9,2.6-5.9,5.9v82.7c0,0.5,0.4,0.9,0.9,0.9h8.7c0.5,0,0.9-0.4,0.9-0.9V299
	l2.8,2.6c0.1,0.1,0.3,0.1,0.4,0c7.8-10.1,12.5-22.8,12.5-36.6C677.2,264.1,677.2,263.2,677.1,262.3z M661.5,289.8v-57.6
	c0-0.7,0.5-1.2,1.2-1.2h5c0.2,0,0.3,0.1,0.3,0.3v26.2v0.5v4.2c0.2,1.6,0.3,3.2,0.3,4.9C668.2,275.5,665.7,283.3,661.5,289.8z
	 M280.3,289h-6.9c-0.3,0-0.6,0.3-0.6,0.6v22.1c0,0.3,0.3,0.6,0.6,0.6h6.9c0.3,0,0.6-0.3,0.6-0.6v-22.1
	C280.9,289.3,280.7,289,280.3,289z M696.8,287.9H689c-0.3,0-0.6,0.2-0.8,0.5c-4.4,8.4-9.7,16.1-15.9,23.2c-0.2,0.2,0,0.5,0.2,0.5
	h13.9c0.3,0,0.6-0.2,0.8-0.4c4.2-7.1,7.7-14.6,10.4-22.5C697.9,288.5,697.4,287.9,696.8,287.9z M580.7,278.6
	c3.8-7.6,7.1-15.6,9.8-23.8c0.1-0.2-0.1-0.4-0.3-0.4h-5.8c-0.5,0-1,0.3-1.1,0.8c-1.7,5-3.7,9.9-5.9,14.6c-2.2-6.7-3.9-13.6-4.9-20.7
	h10.6h5.8h3.3c0.2,0,0.4-0.2,0.3-0.4c-2.1-4.7-4.4-9.2-7-13.6c-0.2-0.4-0.6-0.6-1-0.6H579c-0.2,0-0.3,0.2-0.3,0.4
	c1,2.7,1.9,5.5,2.8,8.3h-9.7c-0.3-2.7-0.4-5.5-0.5-8.3c0-0.6-0.5-1.1-1.2-1.1h-5.8c-0.2,0-0.3,0.1-0.3,0.3c0,3.1,0.1,6.1,0.3,9.2
	h-28.8c-0.7,0-1.2,0.5-1.2,1.2v4.5c0,0.2,0.1,0.3,0.3,0.3h30.2c1.1,11.2,3.2,22.1,6.2,32.5c-5,8.1-10.8,15.5-17.3,22
	c-0.2,0.2-0.1,0.5,0.2,0.5h10.9c0.4,0,0.7-0.2,1-0.5c2.9-4.1,5.7-8.4,8.2-12.7c1.3,3.7,2.7,7.3,4.2,10.9c0.2,0.4,0.6,0.7,1.1,0.7
	h14.3c0.2,0,0.4-0.3,0.2-0.5C588.7,294.9,584.2,287,580.7,278.6z M555.9,283.6c3.3,0,5.9-2.6,5.9-5.9v-22.7c0-0.3-0.3-0.6-0.6-0.6
	h-18.9c-3.3,0-5.9,2.6-5.9,5.9V283c0,0.3,0.3,0.6,0.6,0.6H555.9z M546,261.6c0-0.7,0.5-1.2,1.2-1.2h4.9c0.2,0,0.3,0.1,0.3,0.3v15.8
	c0,0.7-0.5,1.2-1.2,1.2h-4.9c-0.2,0-0.3-0.1-0.3-0.3V261.6z M603.8,224.4h-75.3c-4.9,0-8.8,4-8.8,8.8v79.4c0,0.8,0.7,1.5,1.5,1.5
	h75.3c4.9,0,8.8-4,8.8-8.8v-79.4C605.2,225.1,604.6,224.4,603.8,224.4z M594.3,305.9c0,1.3-1.1,2.4-2.4,2.4h-61.2
	c-0.2,0-0.3-0.1-0.3-0.3v-75.2c0-1.3,1.1-2.4,2.4-2.4H594c0.2,0,0.3,0.1,0.3,0.3V305.9z M393.3,301h6.4c0.9,0,1.6-0.8,1.5-1.7
	c-1-6.1-2.3-12.1-4.2-17.8c0-0.1-0.2-0.2-0.3-0.2h-3.5c-0.9,0-1.6,0.8-1.4,1.7c0.9,5.7,1.4,11.7,1.3,17.7
	C393.1,300.9,393.2,301,393.3,301z M464.6,295.2c5.2-4.3,9.5-9.5,12.7-15.5c0.1-0.2,0-0.4-0.3-0.4h-10.9c-0.5,0-1,0.3-1.1,0.8
	c-1,3.2-2.3,6.3-4,9.2c-2.8-4.9-5.1-10-7-15.4h11c4.9,0,8.8-4,8.8-8.8v-39.1c0-0.8-0.7-1.5-1.5-1.5h-33c-4.9,0-8.8,4-8.8,8.8v74.5
	v0.9v3.9c0,0.8,0.7,1.5,1.5,1.5h12.4c2.4,0,4.4-2,4.4-4.4v-1.6c0-0.2-0.1-0.3-0.3-0.3H442c-0.2,0-0.3-0.1-0.3-0.3v-33.6h3.3
	c3.6,14.5,9.9,27.9,18.2,39.7c0.2,0.3,0.6,0.5,1,0.5h16c0.3,0,0.4-0.3,0.2-0.5C474.4,308.1,469.1,301.9,464.6,295.2z M441.7,232
	c0-0.7,0.5-1.2,1.2-1.2h19.4c0.2,0,0.3,0.1,0.3,0.3V246h-20.9V232z M441.7,267.5v-15.2h20.9v14c0,0.7-0.5,1.2-1.2,1.2H441.7z
	 M741.8,311.6c-4.2-8.3-9.1-16.1-14.7-23.3c-0.2-0.2-0.4-0.3-0.7-0.3h-7.4c-0.7,0-1.1,0.7-0.8,1.3c3.8,7.1,7.1,14.5,9.7,22.2
	c0.1,0.4,0.5,0.6,0.8,0.6h12.8C741.7,312,741.9,311.8,741.8,311.6z M563.9,287.8v-3.1c0-0.2-0.2-0.4-0.4-0.3
	c-9.1,3.8-18.5,6.9-28.2,9.2c-0.5,0.1-0.9,0.6-0.9,1.1v7.1c0,0.2,0.2,0.3,0.4,0.3c10-3.2,19.6-7.6,28.5-13.1
	C563.7,288.8,563.9,288.3,563.9,287.8z M736.7,282.2v-4.2c0-0.5-0.4-0.9-0.9-0.9h-53.9c-0.5,0-0.9,0.4-0.9,0.9v4.2
	c0,0.5,0.4,0.9,0.9,0.9h20.3v30.2c0,0.5,0.4,0.9,0.9,0.9h10.4c0.5,0,0.9-0.4,0.9-0.9V283h21.5C736.3,283,736.7,282.6,736.7,282.2z"
	/>
</svg>
